<svg id="Layer_1" data-name="Layer 1" xmlns="http://www.w3.org/2000/svg" viewBox="0 0 47.99 58.97"><defs><style>.cls-1{fill:#252525;}</style></defs><title>icon-gzip</title><path class="cls-1" d="M30,43H16.26A8,8,0,0,1,8,34.78Q8,22.88,8,11A8,8,0,0,1,16,3C25.31,3,34.66,3,44,3a7.68,7.68,0,0,1,7.34,4.88c0.8,1.75-.11,3.1-2,3.1h-29A4,4,0,0,0,16,15.33q0,7.59,0,15.18C16,33.43,17.6,35,20.53,35H49.4a2,2,0,0,1,2,3A8,8,0,0,1,44,43H30Z" transform="translate(-8 -3)"/><path class="cls-1" d="M34,46H46v7c1.48,0,.91,0,2.34,0a0.8,0.8,0,0,0,.45-0.35A4,4,0,0,1,56,55.37a4,4,0,0,1-3.26,3.54,3.8,3.8,0,0,1-3.9-1.52A0.89,0.89,0,0,0,48,57c-1.31,0-.62,0-1.92,0,0,1.72-1.66,5-6.08,5a5.84,5.84,0,0,1-6-5c-1.42,0-.85,0-2.29,0a0.8,0.8,0,0,0-.45.35A4,4,0,0,1,24,54.62a4,4,0,0,1,3.26-3.54,3.8,3.8,0,0,1,3.9,1.52A0.89,0.89,0,0,0,32,53c1.31,0,.62,0,2,0V46Z" transform="translate(-8 -3)"/><polygon class="cls-1" points="38.26 20.67 25.73 16.02 25.73 11.36 38.26 16.02 38.26 20.67"/><polygon class="cls-1" points="38.26 12.68 25.73 8.02 38.26 8.02 38.26 12.68"/><polygon class="cls-1" points="38.26 28.66 25.73 24.01 25.73 19.36 38.26 24.01 38.26 28.66"/><polygon class="cls-1" points="25.73 32 25.73 27.35 38.26 32 25.73 32"/></svg>